<svg xmlns="http://www.w3.org/2000/svg" viewBox="0 0 250 80" width="250" height="80">
  <!-- Green Circle -->
  <circle cx="40" cy="40" r="30" fill="#60ba47" />
  
  <!-- White 'e' inside the circle -->
  <path fill="#ffffff" d="M38.5,23 c-8.5,0-13.5,6-13.5,15.5 c0,9.5,5.5,15.5,14.5,15.5 c5,0,9.5-2.5,11.5-6.5 l-4.5-2.5 c-1.5,2.5-4,4-7,4 c-5,0-8-3-8.5-8.5 h21.5 c0.5-2.5,0.5-5,0.5-6 C52.5,28.5,47.5,23,38.5,23 z M29.5,35 c1-4,4-7,8.5-7 c5,0,8,3,8,7 H29.5 z" />
  
  <!-- 'Sewa' Text -->
  <text x="78" y="55" font-family="-apple-system, BlinkMacSystemFont, 'Segoe UI', Roboto, Helvetica, Arial, sans-serif" font-weight="800" font-size="44" fill="#ffffff" letter-spacing="-1">Sewa</text>
</svg>
